<?xml version="1.0" encoding="UTF-8"?>
<svg width="64" height="16" role="img" version="1.1" viewBox="0 0 64 16" xmlns="http://www.w3.org/2000/svg">
    <g fill="#fed047">
        <rect width="16" height="16" rx="3" stroke-width="6.8791"/>
        <path d="m2.592 11.733v-7.7869h2.4321q0.72536 0 1.2694 0.28801 0.55468 0.27734 0.85336 0.78936 0.30934 0.51202 0.30934 1.2054 0 0.77869-0.39468 1.3547t-1.056 0.81069l1.5574 3.3388h-1.2587l-1.4507-3.2001h-1.12v3.2001zm1.1414-4.2241h1.2907q0.57602 0 0.91736-0.34134 0.34134-0.34134 0.34134-0.91736 0-0.58668-0.35201-0.92803-0.34134-0.35201-0.90669-0.35201h-1.2907zm5.3122 0.34134v-6.4642h1.28v5.5148zm0 6.7629v-4.0641q0-0.46935 0.23467-0.9387 0.23467-0.48002 0.62935-0.76802l1.5467-1.152q0.26668-0.19201 0.41601-0.42668 0.16-0.24534 0.16-0.44801v-1.8134h-1.1734l1.8134-1.8134 1.8134 1.8134h-1.1734v1.9201q0 0.39468-0.21334 0.80002-0.21334 0.39468-0.55468 0.65069l-1.6534 1.2267q-0.26668 0.20267-0.41601 0.48002t-0.14934 0.58668v3.9468z"
              fill="#642340" aria-label="R"/>
        <path d="m19.233 12.117v-7.7869h2.4321q0.72536 0 1.2694 0.28801 0.55468 0.27734 0.85336 0.78936 0.30934 0.51202 0.30934 1.2054 0 0.77869-0.39468 1.3547t-1.056 0.81069l1.5574 3.3388h-1.2587l-1.4507-3.2001h-1.12v3.2001zm1.1414-4.2241h1.2907q0.57602 0 0.91736-0.34134t0.34134-0.91736q0-0.58668-0.35201-0.92803-0.34134-0.35201-0.9067-0.35201h-1.2907zm5.3548 4.2241v-7.7869h4.5761v1.024h-3.4454v2.2187h3.0721v0.99203h-3.0721v2.5281h3.4454v1.024zm8.0216 0v-6.7415h-2.0801v-1.0454h5.3228v1.0454h-2.0907v6.7415zm4.6828 0v-7.7869h2.4321q0.72536 0 1.2694 0.28801 0.55468 0.27734 0.85336 0.78936 0.30934 0.51202 0.30934 1.2054 0 0.77869-0.39468 1.3547t-1.056 0.81069l1.5574 3.3388h-1.2587l-1.4507-3.2001h-1.12v3.2001zm1.1414-4.2241h1.2907q0.57602 0 0.91736-0.34134t0.34134-0.91736q0-0.58668-0.35201-0.92803-0.34134-0.35201-0.9067-0.35201h-1.2907zm4.8108 4.2241 1.9841-7.7869h1.5147l1.9947 7.7869h-1.1734l-0.46935-1.9734h-2.2081l-0.46935 1.9734zm1.8561-2.9334h1.7707l-0.53335-2.2401q-0.13867-0.59735-0.23467-1.0347-0.08534-0.43735-0.11734-0.60802-0.032 0.17067-0.11734 0.60802-0.08534 0.43735-0.23467 1.024zm7.3709 3.0401q-1.0987 0-1.7494-0.60802-0.64002-0.61869-0.64002-1.6641v-3.4561q0-1.056 0.64002-1.6641 0.65069-0.60802 1.7494-0.60802 1.088 0 1.7281 0.61869 0.65069 0.60802 0.65069 1.6534h-1.152q0-0.60802-0.33068-0.92803-0.32001-0.32001-0.89603-0.32001-0.58668 0-0.91736 0.32001-0.32001 0.32001-0.32001 0.92803v3.4561q0 0.60802 0.32001 0.92803 0.33068 0.32001 0.91736 0.32001 0.57602 0 0.89603-0.32001 0.33068-0.32001 0.33068-0.92803h1.152q0 1.0454-0.65069 1.6641-0.64002 0.60802-1.7281 0.60802zm4.0108-0.10667v-7.7869h1.152v3.2641h1.0347l1.6-3.2641h1.248l-1.8454 3.7334 1.9414 4.0535h-1.3014l-1.6641-3.5201h-1.0134v3.5201z"
              fill="#777" aria-label="RETRACK"/>
    </g>
</svg>
