<?xml version="1.0" encoding="UTF-8"?>
<svg width="16" height="16" role="img" version="1.1" viewBox="0 0 16 16" xmlns="http://www.w3.org/2000/svg">
    <rect width="16" height="16" rx="3" fill="#fed047" stroke-width="6.8791"/>
    <path d="m4 5v-0.8c0-2.32 1.79-4.2 4-4.2s4 1.88 4 4.2v0.8h1.143c0.473 0 0.857 0.448 0.857 1v9c0 0.552-0.384 1-0.857 1h-10.286c-0.473 0-0.857-0.448-0.857-1v-9c0-0.552 0.384-1 0.857-1zm-1 10h10v-9h-10zm8-10.64c0-1.856-1.343-3.36-3-3.36s-3 1.504-3 3.36v0.64h6z"
          display="none" fill="#642340"/>
    <path d="m2.8065 11.5v-7.3h2.28q0.68 0 1.19 0.27 0.52 0.26 0.8 0.74 0.29 0.48 0.29 1.13 0 0.73-0.37 1.27t-0.99 0.76l1.46 3.13h-1.18l-1.36-3h-1.05v3zm1.07-3.96h1.21q0.54 0 0.86-0.32t0.32-0.86q0-0.55-0.33-0.87-0.32-0.33-0.85-0.33h-1.21zm4.98 0.32v-6.06h1.2v5.17zm0 6.34v-3.81q0-0.44 0.22-0.88 0.22-0.45 0.59-0.72l1.45-1.08q0.25-0.18 0.39-0.4 0.15-0.23 0.15-0.42v-1.7h-1.1l1.7-1.7 1.7 1.7h-1.1v1.8q0 0.37-0.2 0.75-0.2 0.37-0.52 0.61l-1.55 1.15q-0.25 0.19-0.39 0.45t-0.14 0.55v3.7z"
          fill="#642340" aria-label="R"/>
</svg>
